<svg width="60" height="60" viewBox="0 0 60 60" fill="none" xmlns="http://www.w3.org/2000/svg">
<circle cx="30" cy="30" r="30" fill="#D8A2BD" fill-opacity="0.56"/>
<path d="M12.961 38.7059H9.50394L16.4649 21.9012H19.9219L12.961 38.7059ZM35.2969 36.9832C34.5157 37.6551 33.6407 38.1707 32.6719 38.5301C31.7032 38.8895 30.6993 39.0692 29.6602 39.0692C28.8633 39.0692 28.0938 38.9637 27.3516 38.7527C26.6172 38.5496 25.9258 38.2606 25.2774 37.8856C24.6368 37.5027 24.0508 37.0457 23.5196 36.5145C22.9883 35.9832 22.5313 35.3973 22.1485 34.7567C21.7735 34.1082 21.4805 33.4168 21.2696 32.6824C21.0664 31.9402 20.9649 31.1707 20.9649 30.3738C20.9649 29.577 21.0664 28.8074 21.2696 28.0652C21.4805 27.3231 21.7735 26.6317 22.1485 25.991C22.5313 25.3426 22.9883 24.7527 23.5196 24.2215C24.0508 23.6902 24.6368 23.2371 25.2774 22.8621C25.9258 22.4793 26.6172 22.1863 27.3516 21.9832C28.0938 21.7723 28.8633 21.6668 29.6602 21.6668C30.6993 21.6668 31.7032 21.8465 32.6719 22.2059C33.6407 22.5574 34.5157 23.0731 35.2969 23.7527L33.5157 26.6824C33.0235 26.1512 32.4414 25.7449 31.7696 25.4637C31.0977 25.1746 30.3946 25.0301 29.6602 25.0301C28.918 25.0301 28.2227 25.1707 27.5743 25.452C26.9258 25.7332 26.3594 26.116 25.875 26.6004C25.3907 27.077 25.0078 27.6434 24.7266 28.2996C24.4453 28.9481 24.3047 29.6395 24.3047 30.3738C24.3047 31.1082 24.4453 31.7996 24.7266 32.4481C25.0078 33.0887 25.3907 33.6512 25.875 34.1356C26.3594 34.6199 26.9258 35.0027 27.5743 35.284C28.2227 35.5652 28.918 35.7059 29.6602 35.7059C30.3946 35.7059 31.0977 35.5652 31.7696 35.284C32.4414 34.9949 33.0235 34.5848 33.5157 34.0535L35.2969 36.9832ZM50.1328 37.0067C49.3516 37.6707 48.4805 38.1824 47.5196 38.5418C46.5586 38.8934 45.5586 39.0692 44.5196 39.0692C43.7227 39.0692 42.9532 38.9637 42.211 38.7527C41.4766 38.5496 40.7891 38.2606 40.1485 37.8856C39.5078 37.5027 38.9219 37.0496 38.3907 36.5262C37.8594 35.9949 37.4063 35.409 37.0313 34.7684C36.6563 34.1199 36.3633 33.4246 36.1524 32.6824C35.9493 31.9402 35.8477 31.1707 35.8477 30.3738C35.8477 29.577 35.9493 28.8113 36.1524 28.077C36.3633 27.3426 36.6563 26.6551 37.0313 26.0145C37.4063 25.366 37.8594 24.7801 38.3907 24.2567C38.9219 23.7254 39.5078 23.2723 40.1485 22.8973C40.7891 22.5223 41.4766 22.2332 42.211 22.0301C42.9532 21.8192 43.7227 21.7137 44.5196 21.7137C45.5586 21.7137 46.5586 21.8934 47.5196 22.2527C48.4805 22.6043 49.3516 23.1121 50.1328 23.7762L48.375 26.7059C47.8672 26.1902 47.2813 25.7879 46.6172 25.4988C45.9532 25.202 45.2539 25.0535 44.5196 25.0535C43.7852 25.0535 43.0938 25.1942 42.4453 25.4754C41.8047 25.7567 41.2422 26.1395 40.7578 26.6238C40.2735 27.1004 39.8907 27.6629 39.6094 28.3113C39.3282 28.952 39.1875 29.6395 39.1875 30.3738C39.1875 31.116 39.3282 31.8113 39.6094 32.4598C39.8907 33.1082 40.2735 33.6746 40.7578 34.159C41.2422 34.6434 41.8047 35.0262 42.4453 35.3074C43.0938 35.5887 43.7852 35.7293 44.5196 35.7293C44.9414 35.7293 45.3516 35.6785 45.75 35.577C46.1485 35.4754 46.5274 35.3348 46.8868 35.1551V30.3738H50.1328V37.0067Z" fill="white"/>
</svg>
